<mxfile host="app.diagrams.net" modified="2024-05-06T08:41:21.102Z" agent="Mozilla/5.0 (Windows NT 10.0; Win64; x64) AppleWebKit/537.36 (KHTML, like Gecko) Chrome/124.0.0.0 Safari/537.36" version="24.3.1" etag="mO5nQoxliDPwzeQjfg6N" type="github">
  <diagram name="Страница — 1" id="kbrbgeuWTtMILB-jMMIU">
    <mxGraphModel>
      <root>
        <mxCell id="0" />
        <mxCell id="1" parent="0" />
      </root>
    </mxGraphModel>
  </diagram>
</mxfile>
